PathFileType	4	(X/Y/Z)	C:\Users\°ÂÌØÂü\Desktop\20210112\bx_n_10_1802-Unnamed.trc
DataRate	CameraRate	NumFrames	NumMarkers	Units	OrigDataRate	OrigDataStartFrame	OrigNumFrames
50.00	50.00	       7	0	mm	50.00	195	       518
Frame#	Time	
		

195	3.880	-724.90417	256.44904	746.16956	-708.74854	150.81032	214.67252	-887.30701	73.05717	1053.87183	-753.03705	267.65585	877.11365	-638.28094	-30.37028	822.09351	-702.03302	-41.98657	613.83746	-673.61505	173.53981	157.03069				-701.85413	-39.08545	566.10889	-666.35632	54.57941	158.97145	-708.40259	73.34019	216.23195	-749.55182	248.88480	504.32874	-602.76025	84.46987	1321.35791	-785.71844	49.92904	176.44139	-709.12537	236.78751	578.48871	-652.00415	-69.06925	160.05031	-721.79114	237.86212	639.25665	-766.34949	225.54439	206.16655	-610.45691	-78.68848	155.05174	-882.42413	296.11435	144.72232	-638.20276	-87.80516	1519.89355	-594.08459	21.64902	168.95268	-654.10577	195.81230	536.91492	-592.33832	220.05847	173.62119	-659.90381	296.74182	159.86035	-623.66541	304.45361	159.53555	-556.65863	256.34851	165.43007	-528.08813	304.24850	146.80701	-638.22339	93.44357	1823.23767	-657.59143	261.46594	1524.91907	-517.44098	-72.86202	143.57384	-547.97418	-35.36222	162.39226	-793.19275	175.32784	184.79308	-647.23987	5.73697	519.42352	-748.35529	-45.69459	486.80038	-755.98596	-12.47785	206.43179	-876.45264	-78.86605	141.83139	-637.87891	200.01746	838.09589	-734.20551	-89.38614	873.61084	-726.59387	-71.94982	756.16425				-670.56195	65.66930	580.76483	-668.53705	134.55870	583.62061	
196	3.900	-726.08972	255.80092	746.74054	-709.20294	150.65776	215.37958	-883.65186	71.82433	1055.13916	-751.61066	267.16251	878.18817	-636.74792	-30.88454	821.56903	-704.68451	-42.42639	614.16199	-673.72742	173.40724	157.08864	-688.93268	218.71521	1072.59314	-704.40369	-39.45243	566.48688	-666.46826	54.44133	159.39729	-709.00037	72.71144	216.40082	-752.79016	248.05832	504.23865	-604.50079	84.18401	1326.28186	-785.77191	49.64328	176.33521	-713.11926	236.68307	579.43176	-652.05865	-69.28977	159.84357	-725.56201	237.65379	640.21857	-766.59595	225.28758	205.89867	-610.32904	-78.77843	154.73996	-882.45593	296.22400	144.77756	-643.61786	-88.31615	1524.55505	-594.19727	21.59794	169.24284	-658.19067	195.06960	537.38818	-592.27484	220.10077	173.51688	-659.79071	296.67761	159.82932	-623.45673	304.45993	159.85767	-556.67383	256.22415	165.63319	-528.11072	304.29047	146.63930	-647.10382	93.21562	1827.39966	-663.99298	260.29895	1529.37329	-517.48071	-72.76261	143.49951	-548.17719	-35.28558	162.21561	-793.35785	175.38049	184.70911	-650.93243	5.27229	519.62848	-750.86255	-46.00216	486.82956	-756.01276	-12.55624	206.30583	-876.45264	-78.86605	141.83139	-637.09119	199.56641	837.90997	-731.04706	-89.99258	874.09570	-726.26575	-72.42715	757.01971				-673.51215	65.53493	580.65967	-673.12341	133.60422	583.80634	
197	3.920	-727.46979	255.14828	747.95758	-709.33685	150.97318	215.44040	-879.87524	70.07920	1055.87036	-750.42792	265.87350	879.11261	-635.02209	-31.23703	820.73895	-706.91193	-42.84418	614.11755	-673.64667	173.27759	157.43945	-686.49841	218.25183	1074.92676	-706.42822	-39.62609	566.95911	-666.58057	54.22461	159.47612	-709.14209	73.01149	216.73578	-756.01971	247.64661	504.56128	-606.09076	83.52122	1330.74109	-785.89471	49.49437	176.37970	-716.96716	235.71242	579.32068	-652.02448	-69.41700	159.64432	-729.13690	236.79094	640.83966	-766.74847	225.38170	206.03793	-610.54865	-78.84003	154.93359	-882.43658	296.06207	144.71053	-649.42163	-88.95174	1528.90442	-594.25446	21.41352	169.45509	-661.37079	194.35358	537.89294	-592.27319	220.06627	173.71156	-659.79071	296.67761	159.82932	-623.61591	304.42090	159.79973	-556.80261	256.34024	165.76208	-528.21967	304.32599	146.67068	-655.94824	92.88508	1830.81458	-669.96667	259.36035	1533.08228	-517.47424	-72.71088	143.39777	-548.17401	-35.36475	162.31413	-793.30627	175.30127	184.69679	-653.50330	4.55473	520.46271	-753.08960	-46.15683	486.69208	-756.62445	-12.83874	206.41035	-876.45752	-78.91599	141.78180	-636.44098	198.85446	837.68445	-728.14160	-90.75205	874.76538	-725.28705	-73.00243	757.65997				-676.11481	64.84203	580.32434	-676.60828	133.28000	583.88721	
198	3.940	-728.57269	254.32278	748.14478	-709.43201	151.28279	215.64273	-876.30634	69.13943	1056.21777	-749.08197	265.62527	879.80774	-633.57587	-31.67132	820.31549	-708.94794	-42.92813	614.42706	-674.10779	173.68616	157.50832	-683.60724	218.22458	1075.87476	-708.27124	-40.19957	567.53241	-666.58411	54.00681	159.56647	-709.72186	72.46307	216.46924	-759.27338	247.10066	504.41620	-607.91254	82.85931	1334.38550	-786.18481	49.08501	176.13518	-720.59711	234.78954	579.45752	-652.16174	-69.56406	159.50760	-732.51770	236.27919	641.04797	-766.89929	225.54178	205.86246	-610.31012	-78.84313	154.74271	-882.60742	296.19128	144.71376	-654.70355	-89.12873	1532.54651	-594.27435	21.59403	169.69037	-664.63019	194.23460	538.64685	-592.25714	220.15219	173.81552	-659.84430	296.80356	159.68362	-623.75317	304.51144	159.73579	-556.97003	256.30826	165.84877	-528.11023	304.21655	146.67133	-664.85760	92.67551	1833.68835	-675.72882	258.74619	1536.29932	-517.58154	-72.60123	143.36253	-548.41907	-35.01112	162.49162	-793.56781	175.35789	184.62276	-655.89044	4.29453	520.35327	-755.32208	-46.41658	486.47595	-757.08197	-13.09089	206.31981	-876.45752	-78.91599	141.78180	-636.26117	198.81981	836.30811	-725.05255	-91.80244	875.95013	-724.34979	-73.44715	758.43237	-666.17383	-31.24061	1063.95972	-678.12622	65.14494	580.83228	-679.63263	132.67400	584.06940	
199	3.960	-729.98944	253.42529	748.81683	-709.50769	151.52119	215.99872	-873.25238	67.92661	1056.67114	-747.86652	264.45715	880.52405	-631.74292	-31.59318	819.20331	-710.68317	-43.47923	614.46136	-673.74359	173.71967	157.93765	-680.74567	218.18831	1076.55273	-711.75696	-39.97400	567.17834	-666.86249	53.87117	159.66641	-709.63055	72.17860	217.00626	-761.75446	246.19812	504.32721	-609.47913	82.38618	1338.05310	-786.25079	48.87508	176.02156	-724.00995	234.46454	579.88666	-652.28558	-69.57838	159.38101	-735.74359	235.90019	641.58807	-767.08789	225.52058	205.88495	-610.40186	-78.92486	154.56326	-882.61615	296.30814	144.90091	-659.49231	-89.16597	1535.26599	-594.43433	21.41959	169.59532	-667.68195	193.78062	539.41705	-592.46075	220.19020	173.71918	-659.84430	296.80356	159.68362	-623.75317	304.51144	159.73579	-557.02313	256.26379	166.03651	-528.11023	304.21655	146.67133	-673.34601	92.70335	1836.26868	-681.78888	257.85941	1539.08179	-517.80792	-72.63148	143.15919	-548.59253	-34.86065	162.62431	-793.62152	175.32938	184.51201	-657.72858	4.34072	520.64917	-756.66376	-46.64841	486.54410	-757.40814	-13.50741	205.95665	-876.59985	-78.80711	142.00635	-634.74738	199.00880	836.05402	-721.99084	-91.73433	875.33301	-724.03406	-73.74568	758.68451	-662.39709	-31.74301	1064.77466	-679.89331	64.46535	580.47040	-682.82220	132.29605	583.89075	
200	3.980	-730.94409	252.47423	749.06348	-709.50604	151.61293	216.22853	-869.86127	66.69314	1056.78650	-746.97705	263.87503	880.75842	-629.92340	-32.55088	818.93256	-712.53424	-44.36287	614.96667	-673.65564	173.63264	158.60332	-677.93292	218.17918	1076.78015	-712.99506	-40.04525	567.49969	-666.78729	53.76073	159.93805	-710.30664	71.72807	217.28192	-764.95392	245.72165	504.54568	-611.55688	81.98873	1341.09058	-786.36829	48.39881	175.71007	-727.28149	233.88489	580.06836	-652.47211	-69.91830	159.09718	-738.69220	235.42897	642.38226	-767.25061	225.38838	205.94022	-610.29974	-79.07726	154.74814	-882.43616	296.14734	144.72641	-664.66913	-89.34708	1537.88525	-594.21606	21.28832	169.86652	-670.69275	193.45203	539.38336	-592.41272	220.36113	174.03934	-659.84430	296.80356	159.68362	-623.75317	304.51144	159.73579	-557.19897	256.30688	166.00662	-528.19769	304.33005	146.53259	-681.67761	92.69596	1838.36218	-687.60052	257.02444	1541.28406	-517.79242	-72.76886	143.14291	-548.89099	-34.87166	162.79013	-793.61298	175.22668	184.42139	-659.52820	3.62401	520.66980	-758.57306	-46.89135	486.65500	-757.75354	-13.80503	205.54880	-876.61328	-78.80009	141.98665	-633.39862	199.76942	835.23987	-719.39178	-92.41875	876.00891	-723.25269	-73.98045	759.02234	-659.10938	-32.68523	1065.51990	-682.07898	63.95484	580.62799	-685.34161	132.01207	584.09515	
201	4.000	-731.83795	251.95158	749.07324	-709.61865	151.59004	216.28078	-866.96368	66.13453	1057.11328	-745.71375	263.59656	881.36145	-628.31604	-33.18892	818.41907	-713.76465	-44.77851	615.14429	-673.68610	173.91953	158.20590	-675.13690	217.86293	1076.87695	-716.55414	-40.15639	566.69653	-667.25092	53.55680	160.41341	-710.38330	71.33033	216.95514	-767.88147	245.29140	504.60925	-613.55994	81.77389	1344.05273	-787.09906	48.14328	175.73978	-730.33826	233.46504	580.23798	-652.28088	-70.13498	159.11383	-741.10370	234.74062	642.78955	-767.47327	225.61990	206.00348	-610.22290	-79.05157	154.52512	-882.42224	296.21420	144.80258	-669.50623	-89.58800	1540.22070	-594.36926	21.06868	170.39134	-673.49817	193.43867	539.66956	-592.31964	220.66789	174.21243	-660.17255	296.90344	159.33858	-623.82690	304.55051	159.64354	-557.22137	256.17215	166.24855	-528.29108	304.34607	146.62177	-689.65424	92.81813	1840.18225	-694.11090	256.62094	1543.65662	-517.81653	-72.90199	143.18591	-548.85284	-34.20766	163.23302	-793.58337	175.18100	184.34726	-661.33344	2.97986	521.03094	-760.53778	-47.28686	486.83084	-757.99725	-14.36320	205.60652	-876.59503	-78.75717	142.05592	-632.44769	200.33714	834.29968	-717.18768	-93.04500	876.40240	-722.67139	-74.46532	759.47443	-656.10712	-32.75132	1065.52673	-683.48566	63.37881	580.54761	-687.45190	132.24281	584.06061	
